<svg width="16" height="16" viewBox="0 0 16 16" fill="none" xmlns="http://www.w3.org/2000/svg">
<path d="M8.0026 15.1666C4.04927 15.1666 0.835938 11.9533 0.835938 7.99992C0.835938 4.04659 4.04927 0.833252 8.0026 0.833252C11.9559 0.833252 15.1693 4.04659 15.1693 7.99992C15.1693 11.9533 11.9559 15.1666 8.0026 15.1666ZM8.0026 1.83325C4.6026 1.83325 1.83594 4.59992 1.83594 7.99992C1.83594 11.3999 4.6026 14.1666 8.0026 14.1666C11.4026 14.1666 14.1693 11.3999 14.1693 7.99992C14.1693 4.59992 11.4026 1.83325 8.0026 1.83325Z" fill="#E65300"/>
<path d="M6.11552 10.3867C5.98885 10.3867 5.86219 10.34 5.76219 10.24C5.56885 10.0467 5.56885 9.72666 5.76219 9.53332L9.53552 5.75999C9.72885 5.56666 10.0489 5.56666 10.2422 5.75999C10.4355 5.95332 10.4355 6.27332 10.2422 6.46666L6.46885 10.24C6.37552 10.34 6.24219 10.3867 6.11552 10.3867Z" fill="#E65300"/>
<path d="M9.88885 10.3867C9.76219 10.3867 9.63552 10.34 9.53552 10.24L5.76219 6.46666C5.56885 6.27332 5.56885 5.95332 5.76219 5.75999C5.95552 5.56666 6.27552 5.56666 6.46885 5.75999L10.2422 9.53332C10.4355 9.72666 10.4355 10.0467 10.2422 10.24C10.1422 10.34 10.0155 10.3867 9.88885 10.3867Z" fill="#E65300"/>
</svg>
