<svg width="120" height="120" viewBox="0 0 120 120" fill="none" xmlns="http://www.w3.org/2000/svg">
<path d="M60 113.75C30.35 113.75 6.25 89.65 6.25 60C6.25 30.35 30.35 6.25 60 6.25C89.65 6.25 113.75 30.35 113.75 60C113.75 89.65 89.65 113.75 60 113.75ZM60 13.75C34.5 13.75 13.75 34.5 13.75 60C13.75 85.5 34.5 106.25 60 106.25C85.5 106.25 106.25 85.5 106.25 60C106.25 34.5 85.5 13.75 60 13.75Z" fill="#E60E00"/>
<path d="M60 68.75C57.95 68.75 56.25 67.05 56.25 65V40C56.25 37.95 57.95 36.25 60 36.25C62.05 36.25 63.75 37.95 63.75 40V65C63.75 67.05 62.05 68.75 60 68.75Z" fill="#E60E00"/>
<path d="M60 84.9999C59.35 84.9999 58.7 84.8499 58.1 84.5999C57.5 84.3499 56.95 83.9999 56.45 83.5499C56 83.0499 55.65 82.5499 55.4 81.8999C55.15 81.2999 55 80.6499 55 79.9999C55 79.3499 55.15 78.6999 55.4 78.0999C55.65 77.4999 56 76.9499 56.45 76.4499C56.95 75.9999 57.5 75.6499 58.1 75.3999C59.3 74.8999 60.7 74.8999 61.9 75.3999C62.5 75.6499 63.05 75.9999 63.55 76.4499C64 76.9499 64.35 77.4999 64.6 78.0999C64.85 78.6999 65 79.3499 65 79.9999C65 80.6499 64.85 81.2999 64.6 81.8999C64.35 82.5499 64 83.0499 63.55 83.5499C63.05 83.9999 62.5 84.3499 61.9 84.5999C61.3 84.8499 60.65 84.9999 60 84.9999Z" fill="#E60E00"/>
</svg>
