<svg width="20" height="20" viewBox="0 0 20 20" fill="none" xmlns="http://www.w3.org/2000/svg">
<path d="M13.7505 15.2084H12.4922C12.1505 15.2084 11.8672 14.9251 11.8672 14.5834C11.8672 14.2417 12.1505 13.9584 12.4922 13.9584H13.7505C15.9339 13.9584 17.7089 12.1834 17.7089 10.0001C17.7089 7.81675 15.9339 6.04175 13.7505 6.04175H12.5005C12.1589 6.04175 11.8755 5.75841 11.8755 5.41675C11.8755 5.07508 12.1505 4.79175 12.5005 4.79175H13.7505C16.6255 4.79175 18.9589 7.12508 18.9589 10.0001C18.9589 12.8751 16.6255 15.2084 13.7505 15.2084Z" fill="#968880"/>
<path d="M7.5013 15.2084H6.2513C3.3763 15.2084 1.04297 12.8751 1.04297 10.0001C1.04297 7.12508 3.3763 4.79175 6.2513 4.79175H7.5013C7.84297 4.79175 8.1263 5.07508 8.1263 5.41675C8.1263 5.75841 7.84297 6.04175 7.5013 6.04175H6.2513C4.06797 6.04175 2.29297 7.81675 2.29297 10.0001C2.29297 12.1834 4.06797 13.9584 6.2513 13.9584H7.5013C7.84297 13.9584 8.1263 14.2417 8.1263 14.5834C8.1263 14.9251 7.84297 15.2084 7.5013 15.2084Z" fill="#968880"/>
<path d="M13.3346 10.625H6.66797C6.3263 10.625 6.04297 10.3417 6.04297 10C6.04297 9.65833 6.3263 9.375 6.66797 9.375H13.3346C13.6763 9.375 13.9596 9.65833 13.9596 10C13.9596 10.3417 13.6763 10.625 13.3346 10.625Z" fill="#968880"/>
</svg>
