<svg width="21" height="20" viewBox="0 0 21 20" fill="none" xmlns="http://www.w3.org/2000/svg">
<path d="M12.9096 15.1833H5.58463C5.1513 15.1833 4.74295 15.1417 4.37629 15.0584C4.18462 15.0334 3.9513 14.9667 3.70963 14.875C2.6013 14.4584 1.29297 13.4334 1.29297 10.8834V6.59168C1.29297 3.86668 2.85963 2.30005 5.58463 2.30005H12.9096C15.2096 2.30005 16.693 3.40002 17.093 5.40002C17.168 5.76669 17.2013 6.15835 17.2013 6.59168V10.8834C17.2013 13.625 15.643 15.1833 12.9096 15.1833ZM5.59295 3.56673C3.54295 3.56673 2.55128 4.55837 2.55128 6.60837V10.9001C2.55128 12.3917 3.0763 13.3084 4.1513 13.7167C4.31796 13.7751 4.4763 13.8167 4.6263 13.8417C4.94297 13.9084 5.25128 13.9417 5.59295 13.9417H12.918C14.968 13.9417 15.9596 12.9501 15.9596 10.9001V6.60837C15.9596 6.25837 15.9346 5.95003 15.8763 5.6667C15.593 4.25003 14.6263 3.56673 12.918 3.56673H5.59295Z" fill="#968880"/>
<path d="M15.4073 17.6832H8.08227C7.37394 17.6832 6.7406 17.5832 6.19893 17.3749C4.97393 16.9165 4.17392 15.9499 3.89892 14.5665C3.85725 14.3582 3.92394 14.1415 4.07394 13.9999C4.22394 13.8499 4.44061 13.7915 4.64894 13.8415C4.92394 13.8999 5.23227 13.9332 5.58227 13.9332H12.9073C14.9573 13.9332 15.9489 12.9416 15.9489 10.8916V6.59987C15.9489 6.24987 15.9239 5.94153 15.8656 5.6582C15.8239 5.44987 15.8906 5.24154 16.0323 5.09154C16.1823 4.94154 16.3906 4.87486 16.5989 4.92486C18.5989 5.33319 19.6989 6.81654 19.6989 9.09987V13.3916C19.6989 16.1249 18.1406 17.6832 15.4073 17.6832ZM5.43228 15.1832C5.69894 15.6665 6.09894 16.0082 6.64894 16.2082C7.04894 16.3582 7.53225 16.4332 8.09059 16.4332H15.4156C17.4656 16.4332 18.4573 15.4416 18.4573 13.3916V9.09987C18.4573 7.7832 18.0489 6.90821 17.2073 6.44988C17.2073 6.49988 17.2073 6.54987 17.2073 6.59987V10.8916C17.2073 13.6166 15.6406 15.1832 12.9156 15.1832H5.59059C5.53225 15.1832 5.48228 15.1832 5.43228 15.1832Z" fill="#968880"/>
<path d="M9.25079 11.5751C7.69246 11.5751 6.42578 10.3084 6.42578 8.75006C6.42578 7.19173 7.69246 5.92505 9.25079 5.92505C10.8091 5.92505 12.0758 7.19173 12.0758 8.75006C12.0758 10.3084 10.8091 11.5751 9.25079 11.5751ZM9.25079 7.17505C8.38413 7.17505 7.67578 7.88339 7.67578 8.75006C7.67578 9.61673 8.38413 10.3251 9.25079 10.3251C10.1175 10.3251 10.8258 9.61673 10.8258 8.75006C10.8258 7.88339 10.1175 7.17505 9.25079 7.17505Z" fill="#968880"/>
<path d="M4.48438 11.2084C4.14271 11.2084 3.85938 10.9251 3.85938 10.5834V6.91675C3.85938 6.57508 4.14271 6.29175 4.48438 6.29175C4.82604 6.29175 5.10938 6.57508 5.10938 6.91675V10.5834C5.10938 10.9251 4.83437 11.2084 4.48438 11.2084Z" fill="#968880"/>
<path d="M14.0078 11.2084C13.6661 11.2084 13.3828 10.9251 13.3828 10.5834V6.91675C13.3828 6.57508 13.6661 6.29175 14.0078 6.29175C14.3495 6.29175 14.6328 6.57508 14.6328 6.91675V10.5834C14.6328 10.9251 14.3578 11.2084 14.0078 11.2084Z" fill="#968880"/>
</svg>
