<svg width="126" height="126" viewBox="0 0 126 126" fill="none" xmlns="http://www.w3.org/2000/svg">
<path d="M126 63C126 97.7939 97.7939 126 63 126C28.2061 126 0 97.7939 0 63C0 28.2061 28.2061 0 63 0C97.7939 0 126 28.2061 126 63ZM7.34032 63C7.34032 93.74 32.26 118.66 63 118.66C93.74 118.66 118.66 93.74 118.66 63C118.66 32.26 93.74 7.34032 63 7.34032C32.26 7.34032 7.34032 32.26 7.34032 63Z" fill="#FADDCC"/>
<path d="M122.33 63C124.357 63 126.011 61.3553 125.893 59.3318C125.302 49.1908 122.266 39.3416 117.046 30.6272C116.005 28.8883 113.712 28.4603 112.036 29.6013C110.361 30.7424 109.939 33.02 110.968 34.7668C115.373 42.2519 117.966 50.6657 118.539 59.3323C118.672 61.3549 120.303 63 122.33 63Z" fill="#E65300"/>
</svg>
