<svg width="120" height="120" viewBox="0 0 120 120" fill="none" xmlns="http://www.w3.org/2000/svg">
<path d="M60 113.75C30.35 113.75 6.25 89.65 6.25 60C6.25 30.35 30.35 6.25 60 6.25C89.65 6.25 113.75 30.35 113.75 60C113.75 89.65 89.65 113.75 60 113.75ZM60 13.75C34.5 13.75 13.75 34.5 13.75 60C13.75 85.5 34.5 106.25 60 106.25C85.5 106.25 106.25 85.5 106.25 60C106.25 34.5 85.5 13.75 60 13.75Z" fill="#E60E00"/>
<path d="M45.8469 77.9C44.8969 77.9 43.9469 77.55 43.1969 76.8C41.7469 75.35 41.7469 72.95 43.1969 71.5L71.4969 43.2C72.9469 41.75 75.3469 41.75 76.7969 43.2C78.2469 44.65 78.2469 47.05 76.7969 48.5L48.4969 76.8C47.7969 77.55 46.7969 77.9 45.8469 77.9Z" fill="#E60E00"/>
<path d="M74.1469 77.9C73.1969 77.9 72.2469 77.55 71.4969 76.8L43.1969 48.5C41.7469 47.05 41.7469 44.65 43.1969 43.2C44.6469 41.75 47.0469 41.75 48.4969 43.2L76.7969 71.5C78.2469 72.95 78.2469 75.35 76.7969 76.8C76.0469 77.55 75.0969 77.9 74.1469 77.9Z" fill="#E60E00"/>
</svg>
