<svg width="17" height="16" viewBox="0 0 17 16" fill="none" xmlns="http://www.w3.org/2000/svg">
<path d="M8.5026 15.1666C4.54927 15.1666 1.33594 11.9533 1.33594 7.99992C1.33594 4.04659 4.54927 0.833252 8.5026 0.833252C12.4559 0.833252 15.6693 4.04659 15.6693 7.99992C15.6693 11.9533 12.4559 15.1666 8.5026 15.1666ZM8.5026 1.83325C5.1026 1.83325 2.33594 4.59992 2.33594 7.99992C2.33594 11.3999 5.1026 14.1666 8.5026 14.1666C11.9026 14.1666 14.6693 11.3999 14.6693 7.99992C14.6693 4.59992 11.9026 1.83325 8.5026 1.83325Z" fill="#FDFDFD"/>
<path d="M7.55688 10.3867C7.42354 10.3867 7.29688 10.3334 7.20354 10.2401L5.31688 8.3534C5.12354 8.16007 5.12354 7.84007 5.31688 7.64673C5.51021 7.4534 5.83021 7.4534 6.02354 7.64673L7.55688 9.18007L10.9835 5.7534C11.1769 5.56007 11.4969 5.56007 11.6902 5.7534C11.8835 5.94673 11.8835 6.26673 11.6902 6.46006L7.91021 10.2401C7.81688 10.3334 7.69021 10.3867 7.55688 10.3867Z" fill="#FDFDFD"/>
</svg>
